<svg fill="none" xmlns="http://www.w3.org/2000/svg">

    <defs>
        <g id="cliente1">

            <path
                d="m6 .087 7.008 6.634L0 6.713v32.188h34V26.594l7 
        6.627V.087H6Zm27.692 25.728-19.87-18.81h19.87v18.81Zm-6.169 
        8.378H5.38V12.545h1.565v20.182h20.578v1.466ZM10.61 43.186l-.818 
        1.685-.818-1.685h-.686l1.194 2.246v1.309h.62v-1.309l1.191-2.246h-.683Zm1.028 
        3.555.288-.828h1.377l.29.828h.645l-1.345-3.555h-.555l-1.342 3.555h.642Zm.976-2.8.515 
        1.474h-1.03l.515-1.474Zm3.257 1.389a.807.807 0 0 0-.134.451c0 
        .3.105.543.315.73.211.186.493.279.845.279.351 0 .654-.096.908-.286l.2.237h.688l-.522-.618c.205-.28.307-.639.307-1.077h-.515c0 .24-.05.457-.148.652l-.687-.81.242-.176a1.34 1.34 0 0 0 .369-.371.785.785 0 0 0 .112-.41.732.732 0 0 0-.249-.564.895.895 0 0 0-.635-.23c-.286 0-.514.082-.683.244-.17.161-.254.381-.254.66 0 .114.027.232.08.354.056.122.153.27.29.444-.263.189-.44.352-.529.49Zm1.604.786a.906.906 0 0 1-.561.2.585.585 0 0 1-.425-.154.533.533 0 0 1-.159-.4c0-.19.098-.36.293-.508l.076-.054.776.916Zm-.637-1.575c-.168-.207-.252-.378-.252-.515 0-.119.035-.217.103-.296a.348.348 0 0 1 .276-.117.37.37 0 0 1 .266.1c.07.066.105.145.105.237a.44.44 0 0 1-.151.344l-.076.062-.271.185Zm5.786 1.931c.244-.213.384-.51.42-.888h-.615c-.033.253-.11.435-.232.544-.122.109-.305.164-.547.164-.265 0-.467-.101-.605-.303-.137-.202-.206-.495-.206-.88v-.314c.004-.38.077-.666.22-.862.145-.197.352-.295.62-.295.231 0 .406.057.525.17.12.113.195.297.225.552h.615c-.04-.389-.178-.69-.418-.903-.239-.213-.555-.32-.947-.32-.291 0-.548.07-.771.208a1.346 1.346 0 0 0-.51.59 2.081 2.081 0 0 0-.179.887v.332c.005.327.066.614.183.862.118.247.284.438.498.573.217.134.467.2.75.2.405 0 .73-.105.974-.317Zm3.63-.498c.12-.263.181-.57.181-.918v-.197a2.148 2.148 0 0 0-.186-.911 1.356 1.356 0 0 0-.52-.6c-.223-.14-.479-.21-.769-.21-.29 0-.546.07-.771.212-.223.14-.396.342-.52.608a2.174 2.174 0 0 0-.183.918v.2c.002.34.063.64.185.9.124.261.298.462.523.604.226.14.483.21.771.21.292 0 .549-.07.772-.21.224-.142.397-.344.517-.606Zm-.661-2.01c.15.21.224.513.224.907v.185c0 .4-.074.705-.222.913-.146.209-.356.313-.63.313a.738.738 0 0 1-.634-.32c-.152-.213-.227-.515-.227-.906v-.205c.003-.382.08-.678.229-.886a.73.73 0 0 1 .627-.315c.274 0 .485.105.633.315Z" />

        </g>
    </defs>


    <defs>
        <g id="cliente2">
            <path
                d="M17.114 3.022h-.137c-.21-.013-.42-.018-.63-.023h-.455c-.397 0-.802.01-1.204.03a.628.628 0 0 0-.091 0A28.275 28.275 0 0 0 4.08 5.712l-.432.208v22.142l1.012-.344c.888-.305 1.834-.58 2.813-.834a34.334 34.334 0 0 1 8.095-1.076v2.91c-.362.002-.713.012-1.065.03h-.084a32.361 32.361 0 0 0-6.228.956 31.626 31.626 0 0 0-7.42 2.892V4.199a29.727 29.727 0 0 1 7.785-3.166 29.793 29.793 0 0 1 7.336-.946h.427c.511.013 1.01.036 1.478.071a21.09 21.09 0 0 1 3.655.583v2.863a22.624 22.624 0 0 0-3.614-.54c-.247-.021-.494-.042-.724-.042Zm5.039 2.926c.635.049 1.293.072 1.958.072a31.467 31.467 0 0 0 7.713-.99 31.777 31.777 0 0 0 7.417-2.893v27.89a29.815 29.815 0 0 1-7.786 3.166 29.938 29.938 0 0 1-7.337.944 22.4 22.4 0 0 1-5.565-.657V5.41c.43.098.873.19 1.323.266.739.125 1.518.216 2.277.272Zm14.194.217-1.012.34a44.56 44.56 0 0 1-2.813.842 34.263 34.263 0 0 1-8.406 1.078c-.66 0-1.267-.018-1.854-.056l-.807-.053V31.093l.693.06c.642.057 1.305.085 1.973.085a26.884 26.884 0 0 0 6.62-.857 27.763 27.763 0 0 0 5.173-1.86l.433-.208V6.165Z" />
            <path
                d="M2.737 42.3a1.493 1.493 0 0 0-1.126-.456 1.676 1.676 0 0 0-.65.122 1.464 1.464 0 0 0-.832.842c-.08.2-.119.413-.116.628v3.794c-.01.268.042.533.149.778.09.195.219.368.38.509.151.127.329.22.52.27.185.051.376.078.567.078.211.002.42-.043.612-.132a1.6 1.6 0 0 0 .96-1.465v-.424h-.993v.338a.881.881 0 0 1-.058.338.608.608 0 0 1-.144.214.697.697 0 0 1-.415.145.504.504 0 0 1-.465-.204.898.898 0 0 1-.132-.508v-3.538c-.006-.196.036-.39.122-.567a.507.507 0 0 1 .485-.229.527.527 0 0 1 .443.214.806.806 0 0 1 .164.509v.328h.982v-.387a1.788 1.788 0 0 0-.121-.664 1.564 1.564 0 0 0-.332-.534ZM8.629 42.256A1.765 1.765 0 0 0 7.5 41.84c-.202.001-.403.037-.592.107a1.559 1.559 0 0 0-.908.842c-.1.231-.15.482-.145.735v3.638c-.006.256.043.51.145.745.09.196.22.37.384.51.152.14.33.249.524.32a1.712 1.712 0 0 0 1.72-.32c.158-.143.286-.316.374-.51.102-.234.151-.489.145-.745v-3.639a1.77 1.77 0 0 0-.145-.734 1.643 1.643 0 0 0-.374-.532Zm-.463 4.905a.654.654 0 0 1-.197.527.726.726 0 0 1-.934 0 .651.651 0 0 1-.197-.527v-3.639a.654.654 0 0 1 .197-.526.727.727 0 0 1 .934 0 .652.652 0 0 1 .197.526v3.64ZM16.367 48.786v-6.888h-.953l-1.253 3.646h-.017l-1.263-3.646h-.943v6.888h.984v-4.19h.018l.963 2.962h.491l.972-2.962h.017v4.19h.984ZM21.958 42.38c-.151-.17-.343-.299-.556-.376a2.184 2.184 0 0 0-.714-.106h-1.462v6.888h.982v-2.69h.505c.307.014.611-.05.886-.188a1.43 1.43 0 0 0 .539-.527c.113-.183.19-.387.225-.6.038-.259.056-.52.053-.783.01-.33-.023-.661-.096-.984a1.467 1.467 0 0 0-.362-.633Zm-.506 2.101a.866.866 0 0 1-.091.359.553.553 0 0 1-.253.241 1.007 1.007 0 0 1-.463.087h-.448v-2.342h.506a.941.941 0 0 1 .443.086.555.555 0 0 1 .23.255c.054.12.083.251.086.383v.458c0 .16.01.326 0 .473h-.01ZM26.608 41.898h-.805l-1.518 6.888h.982l.288-1.48h1.338l.289 1.48h.982l-1.556-6.888Zm-.906 4.47.483-2.497h.018l.48 2.497h-.981ZM32.95 46.048h-.018l-1.482-4.15h-.944v6.888h.982v-4.142h.02l1.5 4.142h.923v-6.888h-.981v4.15ZM38.948 41.898l-.79 2.738h-.02l-.79-2.738H36.31l1.348 3.977v2.911h.982v-2.911l1.348-3.977h-1.04Z" />
        </g>
    </defs>


    <defs>
        <g id="cliente3">
            <path
                d="M7.406 41.188a.133.133 0 0 1 .085.034l.218.208c-.17.169-.379.304-.614.396-.275.1-.571.149-.87.142-.28.005-.558-.04-.817-.133a1.794 1.794 0 0 1-.616-.374 1.673 1.673 0 0 1-.398-.578 1.926 1.926 0 0 1-.14-.742 1.724 1.724 0 0 1 .573-1.322c.186-.163.409-.291.654-.376.269-.09.555-.136.843-.133a2.27 2.27 0 0 1 .782.12c.216.082.415.195.587.335l-.183.222a.176.176 0 0 1-.046.04.124.124 0 0 1-.074.017.178.178 0 0 1-.08-.023l-.097-.06-.137-.075a1.551 1.551 0 0 0-.43-.133 1.902 1.902 0 0 0-.325-.024 1.761 1.761 0 0 0-.605.1c-.18.063-.341.158-.475.28-.135.128-.24.28-.308.445a1.499 1.499 0 0 0-.111.587 1.53 1.53 0 0 0 .111.597c.067.164.17.314.303.443.125.12.28.215.453.275.178.064.369.096.561.095.112.001.223-.005.333-.019a1.316 1.316 0 0 0 .72-.306.17.17 0 0 1 .103-.038ZM13.704 40.14c.004.252-.046.502-.147.738a1.594 1.594 0 0 1-.41.572 1.89 1.89 0 0 1-.645.375 2.654 2.654 0 0 1-1.658 0 1.912 1.912 0 0 1-.64-.376 1.678 1.678 0 0 1-.415-.578 1.922 1.922 0 0 1 0-1.476c.093-.216.234-.413.415-.58.182-.159.4-.282.64-.363a2.61 2.61 0 0 1 1.658 0c.242.085.461.214.643.376.18.165.32.36.412.571.101.238.151.489.147.742Zm-.572 0a1.565 1.565 0 0 0-.104-.591 1.219 1.219 0 0 0-.752-.723 1.918 1.918 0 0 0-1.205 0 1.298 1.298 0 0 0-.461.28 1.191 1.191 0 0 0-.294.443 1.738 1.738 0 0 0 0 1.184 1.209 1.209 0 0 0 .755.72c.388.127.816.127 1.205 0 .175-.061.333-.156.46-.277.131-.129.23-.28.292-.443.073-.19.108-.391.104-.592ZM18.001 40.762l.058.132c.021-.047.04-.09.062-.132.021-.045.045-.088.071-.13l1.393-2.201c.028-.038.052-.062.08-.069a.376.376 0 0 1 .114-.012h.412v3.58h-.488V39.186a.974.974 0 0 1 0-.124L18.3 41.295a.203.203 0 0 1-.082.081.245.245 0 0 1-.12.03h-.079a.242.242 0 0 1-.12-.03.2.2 0 0 1-.081-.081l-1.443-2.246V41.922h-.471V38.35h.411a.377.377 0 0 1 .115.012c.034.015.06.039.076.069l1.423 2.203c.028.04.052.083.071.128ZM23.244 40.584v1.34H22.7V38.35h1.216c.23-.004.459.023.679.078.176.044.34.12.48.223a.922.922 0 0 1 .272.35c.065.146.096.302.093.458a.992.992 0 0 1-.395.815c-.14.107-.304.188-.483.237a2.307 2.307 0 0 1-.657.082l-.66-.01Zm0-.384h.66c.143.002.286-.017.423-.054a.922.922 0 0 0 .305-.154.686.686 0 0 0 .25-.538.604.604 0 0 0-.054-.291.689.689 0 0 0-.19-.244 1.173 1.173 0 0 0-.734-.192h-.66V40.2ZM30.573 41.93h-.43a.205.205 0 0 1-.12-.034.224.224 0 0 1-.072-.083l-.37-.864h-1.863l-.384.864a.204.204 0 0 1-.19.116h-.432l1.636-3.58h.567l1.658 3.58Zm-2.7-1.33h1.539l-.65-1.456c-.049-.11-.09-.222-.122-.337l-.063.187c-.019.057-.04.11-.06.152l-.643 1.454ZM32.929 38.367c.032.015.06.037.082.064l2.385 2.698V38.35h.488v3.58h-.272a.264.264 0 0 1-.112-.022.297.297 0 0 1-.087-.066l-2.383-2.696a.974.974 0 0 1 0 .123V41.93h-.488v-3.58h.289a.26.26 0 0 1 .098.018ZM39.903 40.506v1.421h-.545v-1.421L37.85 38.35h.488a.196.196 0 0 1 .117.03c.03.024.055.051.074.081l.943 1.391a1.439 1.439 0 0 1 .166.318l.072-.154c.026-.057.057-.111.092-.164l.93-1.4a.377.377 0 0 1 .07-.076.183.183 0 0 1 .118-.035h.494l-1.51 2.165ZM17.731 32.343c.238.026.478.047.72.066 3.68-1.43 6.791-3.77 8.948-6.728 2.156-2.958 3.261-6.403 3.177-9.904l-4.054-3.522c.824 3.727.438 7.58-1.114 11.128-1.553 3.548-4.21 6.65-7.677 8.96Z" />
            <path
                d="m16.284 32.18.109.018c3.704-2.302 6.527-5.516 8.106-9.227 1.579-3.711 1.84-7.749.75-11.59l-5.775-5.017c2.335 4.124 3.276 8.74 2.71 13.31-.564 4.57-2.61 8.906-5.9 12.505ZM35.868 19.914c-.981 3.846-3.364 7.315-6.795 9.892a21.625 21.625 0 0 1-3.228 2.013c2.794-.713 5.361-1.974 7.505-3.686s3.807-3.829 4.86-6.187l-2.342-2.032Z" />
            <path
                d="m34.95 19.347-3.335-2.897c-.064 3.303-1.145 6.531-3.13 9.349-1.986 2.817-4.804 5.12-8.16 6.672h.016c.748 0 1.495-.04 2.238-.116 3.137-1.113 5.909-2.883 8.067-5.153 2.159-2.27 3.637-4.968 4.303-7.855ZM16.766 4.248 12.788.787C9.232 1.981 6.174 4.08 4.013 6.809 1.853 9.54.691 12.771.68 16.083c.013 3.66 1.431 7.212 4.03 10.093 2.597 2.881 6.227 4.927 10.314 5.814 3.649-3.862 5.785-8.634 6.098-13.623.313-4.99-1.213-9.935-4.356-14.12ZM44.14 18.814c-.014-4.342-2.006-8.503-5.54-11.574-3.534-3.07-8.324-4.801-13.322-4.813a21.18 21.18 0 0 0-6.753 1.092l24.355 21.16a14.353 14.353 0 0 0 1.26-5.865Z" />
        </g>
    </defs>

    <defs>
        <g id="cliente4">
            <path
                d="M13.146 13.19h-.003c-2.398 0-4.342 1.728-4.342 3.859v.002c0 2.131 1.944 3.859 4.342 3.859h.003c2.398 0 4.342-1.728 4.342-3.859v-.002c0-2.131-1.944-3.86-4.342-3.86ZM45.195 11.956c-.007-2.96-1.333-5.797-3.688-7.89C39.153 1.973 35.96.794 32.63.787c-3.332.005-6.526 1.184-8.882 3.277-2.356 2.094-3.683 4.931-3.69 7.892V28.28s25.134-2.488 25.137-16.32v-.003ZM0 33.636c.006 2.06.93 4.034 2.568 5.49 1.638 1.457 3.859 2.278 6.176 2.284 2.317-.006 4.537-.827 6.176-2.283 1.638-1.456 2.562-3.429 2.568-5.488V22.281S0 24.014 0 33.636Zm8.744 2.035c-.453 0-.895-.119-1.272-.343a2.108 2.108 0 0 1-.843-.913 1.826 1.826 0 0 1-.13-1.175c.088-.395.306-.758.626-1.042.32-.285.728-.479 1.172-.557a2.558 2.558 0 0 1 1.323.115c.419.154.777.415 1.028.75.252.335.386.728.386 1.13a1.84 1.84 0 0 1-.172.782 2.037 2.037 0 0 1-.496.662c-.212.19-.465.34-.744.444a2.542 2.542 0 0 1-.878.155v-.008ZM24.73 32.028v4.266h-.879v-4.266h.88Zm1.7 1.823v.685h-1.94v-.685h1.94Zm.204-1.823v.689H24.49v-.689h2.145Zm4.014 2.034v.202c0 .324-.044.615-.132.873a1.92 1.92 0 0 1-.372.659c-.16.18-.351.317-.574.413a1.83 1.83 0 0 1-.735.143c-.268 0-.513-.047-.736-.143a1.648 1.648 0 0 1-.574-.413 1.93 1.93 0 0 1-.378-.66 2.696 2.696 0 0 1-.132-.872v-.203c0-.326.044-.617.132-.873.088-.257.212-.477.372-.659.162-.181.354-.32.574-.416.223-.095.468-.143.736-.143.27 0 .514.048.735.143.223.096.414.235.574.416.162.182.287.402.375.66.09.255.135.546.135.873Zm-.888.202v-.208c0-.227-.02-.426-.061-.598a1.295 1.295 0 0 0-.182-.434.785.785 0 0 0-.293-.263.838.838 0 0 0-.395-.091c-.149 0-.28.03-.396.09a.792.792 0 0 0-.29.264 1.338 1.338 0 0 0-.178.434 2.593 2.593 0 0 0-.062.598v.208c0 .224.02.423.062.597.04.172.101.318.181.437.08.117.178.206.293.267.115.06.247.09.396.09.148 0 .28-.03.395-.09a.788.788 0 0 0 .29-.267c.078-.12.138-.265.179-.437.04-.173.061-.373.061-.597Zm3.742.914a.565.565 0 0 0-.035-.205.387.387 0 0 0-.124-.17 1.089 1.089 0 0 0-.254-.155 3.587 3.587 0 0 0-.425-.159 5.377 5.377 0 0 1-.551-.21 2.265 2.265 0 0 1-.457-.273 1.23 1.23 0 0 1-.31-.366 1.01 1.01 0 0 1-.112-.484c0-.178.04-.339.117-.483.078-.147.188-.272.328-.375.141-.106.307-.187.498-.243.194-.057.406-.085.636-.085.315 0 .589.056.823.17.235.113.416.268.545.465.131.198.197.423.197.677h-.873a.659.659 0 0 0-.08-.328.535.535 0 0 0-.234-.226.835.835 0 0 0-.393-.081.908.908 0 0 0-.38.07.507.507 0 0 0-.229.184.455.455 0 0 0-.076.258c0 .072.018.138.053.197a.592.592 0 0 0 .164.163c.072.051.16.1.266.144.106.045.228.089.367.132.232.07.436.15.612.237a1.9 1.9 0 0 1 .445.296c.12.11.21.233.27.372.06.139.09.296.09.472a1.024 1.024 0 0 1-.422.87c-.136.102-.3.179-.489.231-.189.053-.4.08-.635.08a2.41 2.41 0 0 1-.624-.083 1.894 1.894 0 0 1-.56-.254 1.286 1.286 0 0 1-.398-.434c-.1-.176-.15-.384-.15-.624h.882c0 .133.02.245.062.337a.563.563 0 0 0 .172.223.744.744 0 0 0 .27.123c.105.025.22.038.346.038a.939.939 0 0 0 .375-.065.463.463 0 0 0 .293-.436Zm3.383-3.15v4.266h-.875v-4.266h.875Zm1.313 0v.689h-3.48v-.689h3.48Zm3.363 3.58v.686h-2.27v-.686h2.27Zm-1.983-3.58v4.266h-.88v-4.266h.88Zm1.687 1.738v.668h-1.974v-.668h1.974Zm.293-1.738v.689h-2.267v-.689h2.267Zm.516 0h1.59c.327 0 .607.05.842.147.236.098.417.242.544.433.127.192.19.427.19.707 0 .228-.038.424-.116.588a1.103 1.103 0 0 1-.326.407 1.685 1.685 0 0 1-.489.258l-.278.147h-1.383l-.006-.686h1.029a.804.804 0 0 0 .383-.082.538.538 0 0 0 .229-.228.705.705 0 0 0 .079-.34.771.771 0 0 0-.076-.355.514.514 0 0 0-.232-.228.855.855 0 0 0-.39-.08h-.711v3.578h-.88v-4.266Zm2.385 4.266-.973-1.901.929-.006.984 1.866v.04h-.94Zm4.614-1.52h-1.087v-.686h1.087a.892.892 0 0 0 .41-.082.526.526 0 0 0 .232-.234.858.858 0 0 0 0-.691.591.591 0 0 0-.232-.265.76.76 0 0 0-.41-.1h-.782v3.578h-.88v-4.266h1.662c.334 0 .62.06.858.182.24.12.424.284.551.495.127.211.19.452.19.724 0 .275-.063.513-.19.715-.127.2-.31.356-.55.465-.239.11-.525.164-.86.164Zm5.068.834v.686h-2.27v-.686h2.27Zm-1.983-3.58v4.266h-.879v-4.266h.879Zm1.687 1.738v.668h-1.974v-.668h1.974Zm.293-1.738v.689h-2.267v-.689h2.267Zm2.482 0v4.266h-.876v-4.266h.876Zm1.312 0v.689h-3.48v-.689h3.48Zm3.364 3.58v.686h-2.27v-.686h2.27Zm-1.984-3.58v4.266h-.879v-4.266h.88ZM61 33.766v.668h-1.975v-.668H61Zm.293-1.738v.689h-2.268v-.689h2.268Zm.515 0H63.4c.326 0 .607.05.84.147.237.098.419.242.546.433.127.192.19.427.19.707 0 .228-.039.424-.117.588a1.103 1.103 0 0 1-.325.407 1.687 1.687 0 0 1-.49.258l-.278.147h-1.383l-.005-.686h1.028a.804.804 0 0 0 .384-.082.538.538 0 0 0 .228-.228.705.705 0 0 0 .08-.34.771.771 0 0 0-.077-.355.514.514 0 0 0-.231-.228.855.855 0 0 0-.39-.08h-.712v3.578h-.879v-4.266Zm2.385 4.266-.973-1.901.93-.006.983 1.866v.04h-.94Zm3.68-1.116a.565.565 0 0 0-.035-.205.387.387 0 0 0-.123-.17 1.089 1.089 0 0 0-.255-.155 3.587 3.587 0 0 0-.425-.159 5.377 5.377 0 0 1-.55-.21 2.265 2.265 0 0 1-.458-.273 1.23 1.23 0 0 1-.31-.366 1.01 1.01 0 0 1-.112-.484c0-.178.04-.339.117-.483.079-.147.188-.272.329-.375.14-.106.306-.187.498-.243.193-.057.405-.085.635-.085.315 0 .59.056.823.17.235.113.416.268.545.465.131.198.197.423.197.677h-.873a.659.659 0 0 0-.08-.328.535.535 0 0 0-.234-.226.835.835 0 0 0-.392-.081.908.908 0 0 0-.381.07.507.507 0 0 0-.229.184.455.455 0 0 0-.076.258c0 .072.018.138.053.197a.592.592 0 0 0 .164.163c.072.051.161.1.267.144.105.045.227.089.366.132.232.07.436.15.612.237a1.9 1.9 0 0 1 .445.296c.12.11.21.233.27.372.06.139.09.296.09.472 0 .185-.035.351-.108.498-.072.146-.177.27-.313.372-.137.102-.3.179-.49.231-.189.053-.4.08-.635.08-.211 0-.42-.028-.624-.083a1.894 1.894 0 0 1-.56-.254 1.286 1.286 0 0 1-.398-.434c-.1-.176-.15-.384-.15-.624h.882c0 .133.02.245.062.337a.563.563 0 0 0 .172.223.744.744 0 0 0 .27.123c.106.025.22.038.346.038a.939.939 0 0 0 .375-.065.463.463 0 0 0 .293-.436Z" />
        </g>
    </defs>

    <defs>
        <g id="cliente5">
            <path
                d="M4.757 38.822c.244.276.373.622.367.977a1.43 1.43 0 0 1-.131.676 1.558 1.558 0 0 1-.438.558 2.627 2.627 0 0 1-1.651.45H0v-6.19h2.844a2.593 2.593 0 0 1 1.576.41c.184.141.33.32.425.52.096.202.139.42.127.64.016.34-.1.676-.33.946-.221.246-.526.416-.866.484.385.064.733.252.98.53Zm-3.406-.934h1.216c.276.018.55-.055.773-.206a.738.738 0 0 0 .207-.275.679.679 0 0 0 .054-.33.7.7 0 0 0-.055-.329.76.76 0 0 0-.203-.276 1.255 1.255 0 0 0-.796-.209H1.35v1.625Zm2.108 2.374a.776.776 0 0 0 .224-.284.71.71 0 0 0 .063-.345.722.722 0 0 0-.066-.35.788.788 0 0 0-.228-.285 1.338 1.338 0 0 0-.826-.224H1.351v1.703h1.292c.29.015.578-.06.816-.215ZM10.57 41.484l-1.581-2.42h-.595v2.42H7.033v-6.192H9.61a2.699 2.699 0 0 1 1.793.527c.36.336.578.778.613 1.248a1.86 1.86 0 0 1-.421 1.314 2.147 2.147 0 0 1-1.229.629l1.685 2.474h-1.48ZM8.395 38.22h1.113c.773 0 1.16-.312 1.16-.937a.852.852 0 0 0-.063-.376.917.917 0 0 0-.221-.32 1.282 1.282 0 0 0-.876-.251H8.381l.013 1.884ZM18.01 40.238h-2.712l-.479 1.246h-1.427l2.49-6.122h1.543l2.481 6.122H18.48l-.469-1.246Zm-.363-.938-.991-2.613-.991 2.613h1.982ZM27.322 41.484h-1.35l-3.03-4.21v4.21h-1.348v-6.192h1.348l3.03 4.235v-4.235h1.35v6.192ZM35.033 40.002c-.28.467-.705.847-1.223 1.092a4.287 4.287 0 0 1-1.9.39h-2.404v-6.192h2.405a4.376 4.376 0 0 1 1.9.381c.517.24.943.616 1.222 1.08.278.504.423 1.06.423 1.625 0 .564-.145 1.12-.423 1.624Zm-1.546-.148a2.16 2.16 0 0 0 .597-1.478c0-.542-.212-1.066-.597-1.477a2.488 2.488 0 0 0-1.692-.527h-.938v4.008h.938a2.489 2.489 0 0 0 1.692-.526ZM18.856.854s17.438 6.028 17.069 14.75V30.36s-17.426-6.031-17.063-14.754L18.856.854ZM51.46 26.905c3.294-2.075 7.103-3.36 11.08-3.739v-4.618c-4.582 1.617-8.47 4.549-11.08 8.357Z" />
            <path
                d="M49.482 28.296c2.695-4.97 7.368-8.805 13.058-10.716V4.272S37.705 12.858 38.23 25.28v21.006s1.107-.384 2.848-1.104c0-.672 0-1.349.08-2.03.513-5.767 3.507-11.11 8.324-14.857Z" />
            <path
                d="M47.12 36.1a20.05 20.05 0 0 1 .869-4.301c-3 3.235-4.816 7.25-5.193 11.479-.037.399-.057.798-.066 1.21a74.756 74.756 0 0 0 4.776-2.305c-.44-2.001-.57-4.049-.386-6.083ZM48.108 36.176a19.051 19.051 0 0 0 .307 5.508c6.785-3.718 14.41-9.462 14.115-16.403v-.605c-4.848.497-9.383 2.437-12.91 5.523a19.26 19.26 0 0 0-1.512 5.977Z" />
        </g>
    </defs>

    <defs>
        <g id="cliente6">
            <path
                d="M53.425 27.495a2.947 2.947 0 0 1-.605-1.988v-2.884c0-.883.2-1.555.602-2.015.4-.46 1.089-.688 2.065-.686.917 0 1.569.196 1.953.587.42.499.625 1.109.578 1.724v.678h-1.64v-.687c.005-.224-.01-.449-.048-.671a.65.65 0 0 0-.235-.399.948.948 0 0 0-.594-.155 1.005 1.005 0 0 0-.625.164.768.768 0 0 0-.272.44 3.33 3.33 0 0 0-.065.712v3.5c-.026.337.047.675.21.982a.77.77 0 0 0 .328.238c.133.052.28.071.424.055a.893.893 0 0 0 .58-.158.704.704 0 0 0 .245-.425 3.86 3.86 0 0 0 .051-.701v-.71h1.641v.648a2.64 2.64 0 0 1-.567 1.813c-.377.428-1.02.642-1.964.642s-1.658-.229-2.062-.704ZM60.257 27.524c-.415-.448-.622-1.102-.622-1.968v-3.032c0-.857.207-1.505.622-1.945.414-.44 1.107-.659 2.079-.657.965 0 1.654.22 2.069.657.414.44.625 1.088.625 1.945v3.032c0 .857-.21 1.514-.632 1.966-.421.451-1.107.677-2.062.677-.955 0-1.661-.229-2.08-.675Zm2.843-.727c.149-.281.216-.589.197-.897v-3.714a1.65 1.65 0 0 0-.193-.88.775.775 0 0 0-.335-.241.906.906 0 0 0-.433-.052.917.917 0 0 0-.434.052.786.786 0 0 0-.337.241c-.15.275-.217.578-.197.88v3.731c-.02.309.047.617.197.898.095.094.214.17.346.222a1.156 1.156 0 0 0 .843 0 1.02 1.02 0 0 0 .346-.222v-.018ZM67.004 20.01h1.766l1.328 5.596 1.36-5.595h1.718l.174 8.076h-1.271l-.136-5.613-1.311 5.613h-1.02l-1.358-5.634-.126 5.634h-1.284l.16-8.076ZM75.33 20.01h2.752c1.585 0 2.378.765 2.378 2.294 0 1.464-.835 2.196-2.504 2.194h-.937v3.59H75.32l.01-8.077Zm2.351 3.452c.168.019.338.006.5-.039.16-.044.31-.117.434-.216.195-.273.281-.593.245-.912a2.525 2.525 0 0 0-.082-.733.594.594 0 0 0-.125-.222.701.701 0 0 0-.214-.162 1.757 1.757 0 0 0-.758-.13h-.659v2.414h.66ZM82.91 20.01h1.824l1.872 8.077h-1.584l-.37-1.862h-1.627l-.38 1.862h-1.607l1.871-8.076Zm1.559 5.28-.636-3.39-.635 3.39h1.27ZM88.117 20.01h1.19l2.275 4.608V20.01h1.41v8.076h-1.131l-2.29-4.81v4.81h-1.457l.003-8.076ZM96.294 25.008l-1.892-4.986h1.594l1.155 3.203 1.083-3.203h1.56l-1.869 4.986v3.08h-1.63v-3.08ZM56.048 31.619v.422h-1.386v3.282h-.581V32.04h-1.393v-.422h3.36ZM60.393 35.323h-.449a.2.2 0 0 1-.126-.035.194.194 0 0 1-.074-.085l-.401-.88H57.42l-.4.88a.242.242 0 0 1-.062.1.207.207 0 0 1-.126.035h-.448l1.699-3.704h.59l1.72 3.69Zm-2.813-1.375h1.603l-.68-1.508a2.699 2.699 0 0 1-.125-.349c-.024.07-.044.138-.064.197l-.062.155-.672 1.505ZM63.321 34.96c.107.004.213.004.32 0 .091-.009.182-.024.271-.045.083-.017.165-.04.245-.067.075-.027.15-.059.227-.091v-.833h-.679a.14.14 0 0 1-.092-.03.086.086 0 0 1-.026-.03.074.074 0 0 1-.008-.037v-.285h1.318v1.42a2.566 2.566 0 0 1-.716.302c-.14.036-.281.061-.425.077a5.16 5.16 0 0 1-.496.023 2.594 2.594 0 0 1-.856-.138 2.09 2.09 0 0 1-.68-.387 1.79 1.79 0 0 1-.438-.587 1.851 1.851 0 0 1-.156-.768 1.92 1.92 0 0 1 .153-.775c.097-.219.247-.419.438-.586.194-.167.425-.297.68-.384.29-.095.6-.142.91-.138.158 0 .316.01.472.032.138.02.274.05.404.094.12.038.233.088.34.146.104.058.203.123.296.194l-.163.229a.143.143 0 0 1-.055.05.172.172 0 0 1-.078.02.222.222 0 0 1-.105-.029 2.113 2.113 0 0 1-.167-.088 1.504 1.504 0 0 0-.227-.1 2.127 2.127 0 0 0-.313-.082 2.614 2.614 0 0 0-.431-.032 2.009 2.009 0 0 0-.656.103c-.189.065-.36.165-.5.293a1.29 1.29 0 0 0-.315.46 1.732 1.732 0 0 0 0 1.235c.074.175.19.333.34.467.139.127.308.227.495.293.216.064.445.089.673.073ZM68.736 34.9h1.855v.423H68.17v-3.704h.58l-.013 3.282ZM72.52 35.323h-.58v-3.704h.58v3.704ZM74.681 31.636a.28.28 0 0 1 .089.068l2.483 2.792a.881.881 0 0 1 0-.132V31.604h.506v3.72h-.292a.275.275 0 0 1-.126-.021.328.328 0 0 1-.091-.07l-2.48-2.79v2.88h-.486V31.62h.302c.033 0 .066.006.095.017ZM82.036 31.619v.407h-2.058v1.223h1.668v.393h-1.668v1.264h2.058v.408H79.38V31.62h2.656ZM21.162 8.742l25.795 6.324v22.158l-25.795-6.32V8.741Zm-1.655-1.888V31.98l29.1 7.135V13.992l-29.1-7.138Z" />
            <path d="M35.104 50.78 6 43.637V18.514l29.104 7.139v25.126Z" />
            <path
                d="m19.99 8.458 25.458 6.244-10.827 9.35L9.16 17.805l10.83-9.347Zm-.483-1.604L6 18.514l29.104 7.14 13.504-11.662-29.1-7.138ZM36.741 49.366l11.867-10.248-11.867-2.912v13.16Z" />
        </g>
    </defs>

    <defs>
        <g id="enviar">
            <path
                d="M24 0L0 13.5L7.66994 16.3407L19.5 5.25002L10.5017 17.3896L10.509 17.3923L10.5 17.3896V24.0001L14.8013 18.982L20.2501 21.0001L24 0Z" />
        </g>

    </defs>




</svg>